<svg width="68" height="70" viewBox="0 0 68 70" fill="none" xmlns="http://www.w3.org/2000/svg">
<g filter="url(#filter0_d)">
<circle cx="34" cy="30" r="30" fill="white"/>
<circle cx="34" cy="30" r="28.5" stroke="#FF8360" stroke-width="3"/>
</g>
<path d="M47.3541 29.0415C47.7625 29.0415 48.0833 28.7206 48.0833 28.3123V26.504C48.0833 26.2706 47.9666 26.0373 47.777 25.9061L34.3312 16.4998C33.8354 16.1498 33.1645 16.1498 32.6541 16.4998L19.2229 25.9061C19.0333 26.0373 18.9166 26.2706 18.9166 26.504V28.3123C18.9166 28.7206 19.2375 29.0415 19.6458 29.0415H21.8333V42.1665H20.375C19.5729 42.1665 18.9166 42.8227 18.9166 43.6248C18.9166 44.4269 19.5729 45.0831 20.375 45.0831H46.625C47.427 45.0831 48.0833 44.4269 48.0833 43.6248C48.0833 42.8227 47.427 42.1665 46.625 42.1665H45.1666V29.0415H47.3541ZM39.3333 37.7915C39.3333 38.5936 38.677 39.2498 37.875 39.2498C37.0729 39.2498 36.4166 38.5936 36.4166 37.7915V33.4165L34.7104 35.9686C34.127 36.829 32.8583 36.829 32.2895 35.9686L30.5833 33.4165V37.7915C30.5833 38.5936 29.927 39.2498 29.125 39.2498C28.3229 39.2498 27.6666 38.5936 27.6666 37.7915V30.9373C27.6666 29.8873 28.5125 29.0415 29.5625 29.0415C30.1895 29.0415 30.7875 29.3623 31.1375 29.8873L33.5 33.4165L35.8479 29.8873C36.2125 29.3623 36.7958 29.0415 37.4375 29.0415C38.4875 29.0415 39.3333 29.8873 39.3333 30.9373V37.7915Z" fill="#FF8360"/>
<defs>
<filter id="filter0_d" x="0" y="0" width="68" height="70" filterUnits="userSpaceOnUse" color-interpolation-filters="sRGB">
<feFlood flood-opacity="0" result="BackgroundImageFix"/>
<feColorMatrix in="SourceAlpha" type="matrix" values="0 0 0 0 0 0 0 0 0 0 0 0 0 0 0 0 0 0 127 0"/>
<feOffset dy="6"/>
<feGaussianBlur stdDeviation="2"/>
<feColorMatrix type="matrix" values="0 0 0 0 0 0 0 0 0 0 0 0 0 0 0 0 0 0 0.25 0"/>
<feBlend mode="normal" in2="BackgroundImageFix" result="effect1_dropShadow"/>
<feBlend mode="normal" in="SourceGraphic" in2="effect1_dropShadow" result="shape"/>
</filter>
</defs>
</svg>
