<svg width="68" height="70" viewBox="0 0 68 70" fill="none" xmlns="http://www.w3.org/2000/svg">
<g filter="url(#filter0_d)">
<circle cx="34" cy="30" r="30" fill="white"/>
<circle cx="34" cy="30" r="28.5" stroke="#826AED" stroke-width="3"/>
</g>
<path d="M37.2969 30.5C37.2969 32.5988 35.5988 34.2969 33.5 34.2969C31.4012 34.2969 29.7031 32.5988 29.7031 30.5C29.7031 28.4012 31.4012 26.7031 33.5 26.7031C35.5988 26.7031 37.2969 28.4012 37.2969 30.5ZM42.7812 26.7031C40.6824 26.7031 38.9844 28.4012 38.9844 30.5C38.9844 32.5988 40.6824 34.2969 42.7812 34.2969C44.8801 34.2969 46.5781 32.5988 46.5781 30.5C46.5781 28.4012 44.8801 26.7031 42.7812 26.7031ZM24.2188 26.7031C22.1199 26.7031 20.4219 28.4012 20.4219 30.5C20.4219 32.5988 22.1199 34.2969 24.2188 34.2969C26.3176 34.2969 28.0156 32.5988 28.0156 30.5C28.0156 28.4012 26.3176 26.7031 24.2188 26.7031Z" fill="#826AED"/>
<defs>
<filter id="filter0_d" x="0" y="0" width="68" height="70" filterUnits="userSpaceOnUse" color-interpolation-filters="sRGB">
<feFlood flood-opacity="0" result="BackgroundImageFix"/>
<feColorMatrix in="SourceAlpha" type="matrix" values="0 0 0 0 0 0 0 0 0 0 0 0 0 0 0 0 0 0 127 0"/>
<feOffset dy="6"/>
<feGaussianBlur stdDeviation="2"/>
<feColorMatrix type="matrix" values="0 0 0 0 0 0 0 0 0 0 0 0 0 0 0 0 0 0 0.25 0"/>
<feBlend mode="normal" in2="BackgroundImageFix" result="effect1_dropShadow"/>
<feBlend mode="normal" in="SourceGraphic" in2="effect1_dropShadow" result="shape"/>
</filter>
</defs>
</svg>
