<svg width="68" height="70" viewBox="0 0 68 70" fill="none" xmlns="http://www.w3.org/2000/svg">
<g filter="url(#filter0_d)">
<circle cx="34" cy="30" r="30" fill="white"/>
<circle cx="34" cy="30" r="28.5" stroke="#3CDBD3" stroke-width="3"/>
</g>
<path d="M24.823 19.0377L24.2542 18.4689C23.6855 17.9002 22.7667 17.9147 22.2125 18.4689L22.198 18.4835C21.6292 19.0522 21.6292 19.971 22.198 20.5252L22.7667 21.0939C23.3355 21.6627 24.2396 21.6627 24.8084 21.0939L24.823 21.0793C25.3917 20.5252 25.3917 19.5918 24.823 19.0377ZM20.3896 28.3127H18.9021C18.1 28.3127 17.4584 28.9543 17.4584 29.7564V29.771C17.4584 30.5731 18.1 31.2147 18.9021 31.2147H20.375C21.1917 31.2293 21.8334 30.5877 21.8334 29.7856V29.771C21.8334 28.9543 21.1917 28.3127 20.3896 28.3127ZM33.5146 13.8022H33.5C32.6834 13.8022 32.0417 14.4439 32.0417 15.246V16.646C32.0417 17.4481 32.6834 18.0897 33.4855 18.0897H33.5C34.3167 18.1043 34.9584 17.4627 34.9584 16.6606V15.246C34.9584 14.4439 34.3167 13.8022 33.5146 13.8022ZM44.8021 18.4835C44.2334 17.9147 43.3146 17.9147 42.7459 18.4689L42.1771 19.0377C41.6084 19.6064 41.6084 20.5252 42.1771 21.0793L42.1917 21.0939C42.7605 21.6627 43.6792 21.6627 44.2334 21.0939L44.8021 20.5252C45.3709 19.9564 45.3709 19.0522 44.8021 18.4835ZM42.1625 40.5043L42.7313 41.0731C43.3 41.6418 44.2188 41.6418 44.7875 41.0731C45.3563 40.5043 45.3563 39.5856 44.7875 39.0168L44.2188 38.4481C43.65 37.8793 42.7313 37.8939 42.1771 38.4481C41.5938 39.0314 41.5938 39.9356 42.1625 40.5043ZM45.1667 29.7564V29.771C45.1667 30.5731 45.8084 31.2147 46.6105 31.2147H48.0834C48.8855 31.2147 49.5271 30.5731 49.5271 29.771V29.7564C49.5271 28.9543 48.8855 28.3127 48.0834 28.3127H46.6105C45.8084 28.3127 45.1667 28.9543 45.1667 29.7564ZM33.5 21.021C28.673 21.021 24.75 24.9439 24.75 29.771C24.75 34.5981 28.673 38.521 33.5 38.521C38.3271 38.521 42.25 34.5981 42.25 29.771C42.25 24.9439 38.3271 21.021 33.5 21.021ZM33.4855 45.7397H33.5C34.3021 45.7397 34.9438 45.0981 34.9438 44.296V42.896C34.9438 42.0939 34.3021 41.4522 33.5 41.4522H33.4855C32.6834 41.4522 32.0417 42.0939 32.0417 42.896V44.296C32.0417 45.0981 32.6834 45.7397 33.4855 45.7397ZM22.198 41.0585C22.7667 41.6272 23.6855 41.6272 24.2542 41.0585L24.823 40.4897C25.3917 39.921 25.3771 39.0022 24.823 38.4481L24.8084 38.4335C24.2396 37.8647 23.3209 37.8647 22.7521 38.4335L22.1834 39.0022C21.6292 39.5856 21.6292 40.4897 22.198 41.0585Z" fill="#3CDBD3"/>
<defs>
<filter id="filter0_d" x="0" y="0" width="68" height="70" filterUnits="userSpaceOnUse" color-interpolation-filters="sRGB">
<feFlood flood-opacity="0" result="BackgroundImageFix"/>
<feColorMatrix in="SourceAlpha" type="matrix" values="0 0 0 0 0 0 0 0 0 0 0 0 0 0 0 0 0 0 127 0"/>
<feOffset dy="6"/>
<feGaussianBlur stdDeviation="2"/>
<feColorMatrix type="matrix" values="0 0 0 0 0 0 0 0 0 0 0 0 0 0 0 0 0 0 0.25 0"/>
<feBlend mode="normal" in2="BackgroundImageFix" result="effect1_dropShadow"/>
<feBlend mode="normal" in="SourceGraphic" in2="effect1_dropShadow" result="shape"/>
</filter>
</defs>
</svg>
