<svg width="68" height="70" viewBox="0 0 68 70" fill="none" xmlns="http://www.w3.org/2000/svg">
<g filter="url(#filter0_d)">
<circle cx="34" cy="30" r="30" fill="white"/>
<circle cx="34" cy="30" r="28.5" stroke="#826AED" stroke-width="3"/>
</g>
<path d="M46.6406 22.25H46.1875V19.5312C46.1875 16.9938 40.5688 15 33.5 15C26.4312 15 20.8125 16.9938 20.8125 19.5312V22.25H20.3594C19.6089 22.25 19 22.8583 19 23.6094V28.1406C19 28.8911 19.6089 29.5 20.3594 29.5H20.8125V38.5625C20.8125 39.5633 21.6242 40.375 22.625 40.375V42.1875C22.625 43.1883 23.4367 44 24.4375 44H26.25C27.2508 44 28.0625 43.1883 28.0625 42.1875V40.375H38.9375V42.1875C38.9375 43.1883 39.7492 44 40.75 44H42.5625C43.5633 44 44.375 43.1883 44.375 42.1875V40.375H44.7375C45.6437 40.375 46.1875 39.65 46.1875 38.925V29.5H46.6406C47.3911 29.5 48 28.8911 48 28.1406V23.6094C48 22.8583 47.3911 22.25 46.6406 22.25ZM25.3438 37.6562C24.3429 37.6562 23.5312 36.8446 23.5312 35.8438C23.5312 34.8429 24.3429 34.0312 25.3438 34.0312C26.3446 34.0312 27.1562 34.8429 27.1562 35.8438C27.1562 36.8446 26.3446 37.6562 25.3438 37.6562ZM26.25 31.3125C25.2492 31.3125 24.4375 30.5008 24.4375 29.5V22.25C24.4375 21.2492 25.2492 20.4375 26.25 20.4375H40.75C41.7508 20.4375 42.5625 21.2492 42.5625 22.25V29.5C42.5625 30.5008 41.7508 31.3125 40.75 31.3125H26.25ZM41.6562 37.6562C40.6554 37.6562 39.8438 36.8446 39.8438 35.8438C39.8438 34.8429 40.6554 34.0312 41.6562 34.0312C42.6571 34.0312 43.4688 34.8429 43.4688 35.8438C43.4688 36.8446 42.6571 37.6562 41.6562 37.6562Z" fill="#826AED"/>
<defs>
<filter id="filter0_d" x="0" y="0" width="68" height="70" filterUnits="userSpaceOnUse" color-interpolation-filters="sRGB">
<feFlood flood-opacity="0" result="BackgroundImageFix"/>
<feColorMatrix in="SourceAlpha" type="matrix" values="0 0 0 0 0 0 0 0 0 0 0 0 0 0 0 0 0 0 127 0"/>
<feOffset dy="6"/>
<feGaussianBlur stdDeviation="2"/>
<feColorMatrix type="matrix" values="0 0 0 0 0 0 0 0 0 0 0 0 0 0 0 0 0 0 0.25 0"/>
<feBlend mode="normal" in2="BackgroundImageFix" result="effect1_dropShadow"/>
<feBlend mode="normal" in="SourceGraphic" in2="effect1_dropShadow" result="shape"/>
</filter>
</defs>
</svg>
