<svg width="68" height="70" viewBox="0 0 68 70" fill="none" xmlns="http://www.w3.org/2000/svg">
<g filter="url(#filter0_d)">
<circle cx="34" cy="30" r="30" fill="white"/>
<circle cx="34" cy="30" r="28.5" stroke="#3F88C5" stroke-width="3"/>
</g>
<path d="M46.6251 29.0415H42.0022L45.7063 25.3373C46.2751 24.7686 46.2751 23.8498 45.7063 23.2811C45.1376 22.7123 44.2043 22.7123 43.6355 23.2811L37.8751 29.0415H34.9584V26.1248L40.7188 20.3644C41.2876 19.7957 41.2876 18.8623 40.7188 18.2936C40.1501 17.7248 39.2313 17.7248 38.6626 18.2936L34.9584 21.9978V17.3748C34.9584 16.5728 34.3022 15.9165 33.5001 15.9165C32.698 15.9165 32.0417 16.5728 32.0417 17.3748V21.9978L28.3376 18.2936C27.7688 17.7248 26.8501 17.7248 26.2813 18.2936C25.7126 18.8623 25.7126 19.7957 26.2813 20.3644L32.0417 26.1248V29.0415H29.1251L23.3647 23.2811C22.7959 22.7123 21.8626 22.7123 21.2938 23.2811C20.7251 23.8498 20.7251 24.7686 21.2938 25.3373L24.998 29.0415H20.3751C19.573 29.0415 18.9167 29.6978 18.9167 30.4998C18.9167 31.3019 19.573 31.9582 20.3751 31.9582H24.998L21.2938 35.6623C20.7251 36.2311 20.7251 37.1498 21.2938 37.7186C21.8626 38.2873 22.7959 38.2873 23.3647 37.7186L29.1251 31.9582H32.0417V34.8748L26.2813 40.6353C25.7126 41.204 25.7126 42.1373 26.2813 42.7061C26.8501 43.2748 27.7688 43.2748 28.3376 42.7061L32.0417 39.0019V43.6248C32.0417 44.4269 32.698 45.0832 33.5001 45.0832C34.3022 45.0832 34.9584 44.4269 34.9584 43.6248V39.0019L38.6626 42.7061C39.2313 43.2748 40.1501 43.2748 40.7188 42.7061C41.2876 42.1373 41.2876 41.204 40.7188 40.6353L34.9584 34.8748V31.9582H37.8751L43.6355 37.7186C44.2043 38.2873 45.1376 38.2873 45.7063 37.7186C46.2751 37.1498 46.2751 36.2311 45.7063 35.6623L42.0022 31.9582H46.6251C47.4272 31.9582 48.0834 31.3019 48.0834 30.4998C48.0834 29.6978 47.4272 29.0415 46.6251 29.0415Z" fill="#3F88C5"/>
<defs>
<filter id="filter0_d" x="0" y="0" width="68" height="70" filterUnits="userSpaceOnUse" color-interpolation-filters="sRGB">
<feFlood flood-opacity="0" result="BackgroundImageFix"/>
<feColorMatrix in="SourceAlpha" type="matrix" values="0 0 0 0 0 0 0 0 0 0 0 0 0 0 0 0 0 0 127 0"/>
<feOffset dy="6"/>
<feGaussianBlur stdDeviation="2"/>
<feColorMatrix type="matrix" values="0 0 0 0 0 0 0 0 0 0 0 0 0 0 0 0 0 0 0.25 0"/>
<feBlend mode="normal" in2="BackgroundImageFix" result="effect1_dropShadow"/>
<feBlend mode="normal" in="SourceGraphic" in2="effect1_dropShadow" result="shape"/>
</filter>
</defs>
</svg>
