<svg width="60" height="99" viewBox="0 0 60 99" fill="none" xmlns="http://www.w3.org/2000/svg">
<path d="M30 99L4.01923 45L55.9808 45L30 99Z" fill="#5C4BAA"/>
<circle cx="30" cy="30" r="28.5" fill="white" stroke="#5C4BAA" stroke-width="3"/>
<path d="M33.2969 30.5C33.2969 32.5988 31.5988 34.2969 29.5 34.2969C27.4012 34.2969 25.7031 32.5988 25.7031 30.5C25.7031 28.4012 27.4012 26.7031 29.5 26.7031C31.5988 26.7031 33.2969 28.4012 33.2969 30.5ZM38.7812 26.7031C36.6824 26.7031 34.9844 28.4012 34.9844 30.5C34.9844 32.5988 36.6824 34.2969 38.7812 34.2969C40.8801 34.2969 42.5781 32.5988 42.5781 30.5C42.5781 28.4012 40.8801 26.7031 38.7812 26.7031ZM20.2188 26.7031C18.1199 26.7031 16.4219 28.4012 16.4219 30.5C16.4219 32.5988 18.1199 34.2969 20.2188 34.2969C22.3176 34.2969 24.0156 32.5988 24.0156 30.5C24.0156 28.4012 22.3176 26.7031 20.2188 26.7031Z" fill="#5C4BAA"/>
</svg>
