<svg width="60" height="99" viewBox="0 0 60 99" fill="none" xmlns="http://www.w3.org/2000/svg">
<path d="M30 99L4.01923 45L55.9808 45L30 99Z" fill="#7DCE82"/>
<circle cx="30" cy="30" r="28.5" fill="white" stroke="#7DCE82" stroke-width="3"/>
<path d="M35.3333 22.7498V31.4998C35.3333 33.104 36.6458 34.4165 38.25 34.4165H39.7083V44.6248C39.7083 45.4269 40.3646 46.0832 41.1667 46.0832C41.9688 46.0832 42.625 45.4269 42.625 44.6248V18.5644C42.625 17.6165 41.7354 16.9165 40.8167 17.1353C37.6667 17.9082 35.3333 20.5769 35.3333 22.7498ZM28.0417 27.1248H25.125V18.3748C25.125 17.5728 24.4688 16.9165 23.6667 16.9165C22.8646 16.9165 22.2083 17.5728 22.2083 18.3748V27.1248H19.2917V18.3748C19.2917 17.5728 18.6354 16.9165 17.8333 16.9165C17.0313 16.9165 16.375 17.5728 16.375 18.3748V27.1248C16.375 30.3478 18.9854 32.9582 22.2083 32.9582V44.6248C22.2083 45.4269 22.8646 46.0832 23.6667 46.0832C24.4688 46.0832 25.125 45.4269 25.125 44.6248V32.9582C28.3479 32.9582 30.9583 30.3478 30.9583 27.1248V18.3748C30.9583 17.5728 30.3021 16.9165 29.5 16.9165C28.6979 16.9165 28.0417 17.5728 28.0417 18.3748V27.1248Z" fill="#7DCE82"/>
</svg>
