<svg width="60" height="99" viewBox="0 0 60 99" fill="none" xmlns="http://www.w3.org/2000/svg">
<path d="M30 99L4.01923 45L55.9808 45L30 99Z" fill="#E8E288"/>
<circle cx="30" cy="30" r="28.5" fill="white" stroke="#E8E288" stroke-width="3"/>
<path d="M34.5896 27.0439C34.3563 23.5147 33.0875 20.0585 30.7396 17.1855C30.1417 16.4564 29.048 16.4564 28.45 17.1855C26.0438 20.073 24.7021 23.5293 24.4105 27.0439C26.2771 28.0355 27.998 29.3189 29.5 30.8793C31.0021 29.3335 32.723 28.0501 34.5896 27.0439V27.0439ZM25.1105 30.9085C24.9063 30.7626 24.673 30.6314 24.4542 30.4855C24.673 30.646 24.9063 30.7626 25.1105 30.9085ZM34.473 30.5439C34.2834 30.6751 34.0792 30.7772 33.8896 30.923C34.0792 30.7772 34.2834 30.6751 34.473 30.5439ZM29.5 35.5314C26.6563 31.2001 22.0042 28.196 16.623 27.671C15.6896 27.5835 14.9167 28.3564 15.0042 29.2897C15.6605 36.2897 20.3271 42.0939 26.6417 44.3543C27.5605 44.6897 28.523 44.9376 29.5146 45.098C30.5063 44.923 31.4542 44.6751 32.3875 44.3543C38.7021 42.0939 43.3688 36.3043 44.025 29.2897C44.1125 28.3564 43.325 27.5835 42.4063 27.671C36.9959 28.196 32.3438 31.2001 29.5 35.5314V35.5314Z" fill="#E8E288"/>
</svg>
