<svg width="60" height="99" viewBox="0 0 60 99" fill="none" xmlns="http://www.w3.org/2000/svg">
<path d="M30 99L4.01923 45L55.9808 45L30 99Z" fill="#3F88C5"/>
<circle cx="30" cy="30" r="28.5" fill="white" stroke="#3F88C5" stroke-width="3"/>
<path d="M42.6251 29.0415H38.0022L41.7063 25.3373C42.2751 24.7686 42.2751 23.8498 41.7063 23.2811C41.1376 22.7123 40.2043 22.7123 39.6355 23.2811L33.8751 29.0415H30.9584V26.1248L36.7188 20.3644C37.2876 19.7957 37.2876 18.8623 36.7188 18.2936C36.1501 17.7248 35.2313 17.7248 34.6626 18.2936L30.9584 21.9978V17.3748C30.9584 16.5728 30.3022 15.9165 29.5001 15.9165C28.698 15.9165 28.0417 16.5728 28.0417 17.3748V21.9978L24.3376 18.2936C23.7688 17.7248 22.8501 17.7248 22.2813 18.2936C21.7126 18.8623 21.7126 19.7957 22.2813 20.3644L28.0417 26.1248V29.0415H25.1251L19.3647 23.2811C18.7959 22.7123 17.8626 22.7123 17.2938 23.2811C16.7251 23.8498 16.7251 24.7686 17.2938 25.3373L20.998 29.0415H16.3751C15.573 29.0415 14.9167 29.6978 14.9167 30.4998C14.9167 31.3019 15.573 31.9582 16.3751 31.9582H20.998L17.2938 35.6623C16.7251 36.2311 16.7251 37.1498 17.2938 37.7186C17.8626 38.2873 18.7959 38.2873 19.3647 37.7186L25.1251 31.9582H28.0417V34.8748L22.2813 40.6353C21.7126 41.204 21.7126 42.1373 22.2813 42.7061C22.8501 43.2748 23.7688 43.2748 24.3376 42.7061L28.0417 39.0019V43.6248C28.0417 44.4269 28.698 45.0832 29.5001 45.0832C30.3022 45.0832 30.9584 44.4269 30.9584 43.6248V39.0019L34.6626 42.7061C35.2313 43.2748 36.1501 43.2748 36.7188 42.7061C37.2876 42.1373 37.2876 41.204 36.7188 40.6353L30.9584 34.8748V31.9582H33.8751L39.6355 37.7186C40.2043 38.2873 41.1376 38.2873 41.7063 37.7186C42.2751 37.1498 42.2751 36.2311 41.7063 35.6623L38.0022 31.9582H42.6251C43.4272 31.9582 44.0834 31.3019 44.0834 30.4998C44.0834 29.6978 43.4272 29.0415 42.6251 29.0415Z" fill="#3F88C5"/>
</svg>
