<svg width="60" height="99" viewBox="0 0 60 99" fill="none" xmlns="http://www.w3.org/2000/svg">
<path d="M30 99L4.01923 45L55.9808 45L30 99Z" fill="#FF8360"/>
<circle cx="30" cy="30" r="28.5" fill="white" stroke="#FF8360" stroke-width="3"/>
<path d="M43.3541 29.0415C43.7625 29.0415 44.0833 28.7206 44.0833 28.3123V26.504C44.0833 26.2706 43.9666 26.0373 43.777 25.9061L30.3312 16.4998C29.8354 16.1498 29.1645 16.1498 28.6541 16.4998L15.2229 25.9061C15.0333 26.0373 14.9166 26.2706 14.9166 26.504V28.3123C14.9166 28.7206 15.2375 29.0415 15.6458 29.0415H17.8333V42.1665H16.375C15.5729 42.1665 14.9166 42.8227 14.9166 43.6248C14.9166 44.4269 15.5729 45.0831 16.375 45.0831H42.625C43.427 45.0831 44.0833 44.4269 44.0833 43.6248C44.0833 42.8227 43.427 42.1665 42.625 42.1665H41.1666V29.0415H43.3541ZM35.3333 37.7915C35.3333 38.5936 34.677 39.2498 33.875 39.2498C33.0729 39.2498 32.4166 38.5936 32.4166 37.7915V33.4165L30.7104 35.9686C30.127 36.829 28.8583 36.829 28.2895 35.9686L26.5833 33.4165V37.7915C26.5833 38.5936 25.927 39.2498 25.125 39.2498C24.3229 39.2498 23.6666 38.5936 23.6666 37.7915V30.9373C23.6666 29.8873 24.5125 29.0415 25.5625 29.0415C26.1895 29.0415 26.7875 29.3623 27.1375 29.8873L29.5 33.4165L31.8479 29.8873C32.2125 29.3623 32.7958 29.0415 33.4375 29.0415C34.4875 29.0415 35.3333 29.8873 35.3333 30.9373V37.7915Z" fill="#FF8360"/>
</svg>
