<svg width="60" height="99" viewBox="0 0 60 99" fill="none" xmlns="http://www.w3.org/2000/svg">
<path d="M30 99L4.01923 45L55.9808 45L30 99Z" fill="#E17354"/>
<circle cx="30" cy="30" r="28.5" fill="white" stroke="#E17354" stroke-width="3"/>
<path d="M45.273 25.0227L41.9015 19.7617C41.6002 19.2895 41.0652 19 40.4938 19H19.5067C18.9353 19 18.4002 19.2895 18.099 19.7617L14.7275 25.0227C12.9873 27.7395 14.5301 31.5176 17.7821 31.9492C18.0158 31.9797 18.2548 31.9949 18.4938 31.9949C20.0314 31.9949 21.3925 31.3348 22.3275 30.3141C23.2626 31.3348 24.6288 31.9949 26.1613 31.9949C27.699 31.9949 29.06 31.3348 29.9951 30.3141C30.9301 31.3348 32.2964 31.9949 33.8288 31.9949C35.3665 31.9949 36.7275 31.3348 37.6626 30.3141C38.6028 31.3348 39.9639 31.9949 41.4964 31.9949C41.7405 31.9949 41.9743 31.9797 42.208 31.9492C45.4704 31.5227 47.0184 27.7445 45.273 25.0227V25.0227ZM41.5067 33.625C40.9873 33.625 40.473 33.5488 39.9743 33.432V38.5H20.0262V33.432C19.5275 33.5438 19.0132 33.625 18.4938 33.625C18.1821 33.625 17.8652 33.6047 17.5587 33.5641C17.2678 33.5234 16.9821 33.4574 16.7067 33.3813V43.375C16.7067 44.2738 17.4496 45 18.3691 45H41.6418C42.5613 45 43.3041 44.2738 43.3041 43.375V33.3813C43.0236 33.4625 42.7431 33.5285 42.4522 33.5641C42.1353 33.6047 41.8236 33.625 41.5067 33.625Z" fill="#E17354"/>
</svg>
