<svg width="60" height="99" viewBox="0 0 60 99" fill="none" xmlns="http://www.w3.org/2000/svg">
<path d="M30 99L4.01923 45L55.9808 45L30 99Z" fill="#826AED"/>
<circle cx="30" cy="30" r="28.5" fill="white" stroke="#826AED" stroke-width="3"/>
<path d="M42.6406 23.25H42.1875V20.5312C42.1875 17.9938 36.5688 16 29.5 16C22.4312 16 16.8125 17.9938 16.8125 20.5312V23.25H16.3594C15.6089 23.25 15 23.8583 15 24.6094V29.1406C15 29.8911 15.6089 30.5 16.3594 30.5H16.8125V39.5625C16.8125 40.5633 17.6242 41.375 18.625 41.375V43.1875C18.625 44.1883 19.4367 45 20.4375 45H22.25C23.2508 45 24.0625 44.1883 24.0625 43.1875V41.375H34.9375V43.1875C34.9375 44.1883 35.7492 45 36.75 45H38.5625C39.5633 45 40.375 44.1883 40.375 43.1875V41.375H40.7375C41.6437 41.375 42.1875 40.65 42.1875 39.925V30.5H42.6406C43.3911 30.5 44 29.8911 44 29.1406V24.6094C44 23.8583 43.3911 23.25 42.6406 23.25ZM21.3438 38.6562C20.3429 38.6562 19.5312 37.8446 19.5312 36.8438C19.5312 35.8429 20.3429 35.0312 21.3438 35.0312C22.3446 35.0312 23.1562 35.8429 23.1562 36.8438C23.1562 37.8446 22.3446 38.6562 21.3438 38.6562ZM22.25 32.3125C21.2492 32.3125 20.4375 31.5008 20.4375 30.5V23.25C20.4375 22.2492 21.2492 21.4375 22.25 21.4375H36.75C37.7508 21.4375 38.5625 22.2492 38.5625 23.25V30.5C38.5625 31.5008 37.7508 32.3125 36.75 32.3125H22.25ZM37.6562 38.6562C36.6554 38.6562 35.8438 37.8446 35.8438 36.8438C35.8438 35.8429 36.6554 35.0312 37.6562 35.0312C38.6571 35.0312 39.4688 35.8429 39.4688 36.8438C39.4688 37.8446 38.6571 38.6562 37.6562 38.6562Z" fill="#826AED"/>
</svg>
