<svg width="60" height="99" viewBox="0 0 60 99" fill="none" xmlns="http://www.w3.org/2000/svg">
<path d="M30 99L4.01923 45L55.9808 45L30 99Z" fill="#3CDBD3"/>
<circle cx="30" cy="30" r="28.5" fill="white" stroke="#3CDBD3" stroke-width="3"/>
<path d="M20.823 19.0377L20.2542 18.4689C19.6855 17.9002 18.7667 17.9147 18.2125 18.4689L18.198 18.4835C17.6292 19.0522 17.6292 19.971 18.198 20.5252L18.7667 21.0939C19.3355 21.6627 20.2396 21.6627 20.8084 21.0939L20.823 21.0793C21.3917 20.5252 21.3917 19.5918 20.823 19.0377V19.0377ZM16.3896 28.3127H14.9021C14.1 28.3127 13.4584 28.9543 13.4584 29.7564V29.771C13.4584 30.5731 14.1 31.2147 14.9021 31.2147H16.375C17.1917 31.2293 17.8334 30.5877 17.8334 29.7856V29.771C17.8334 28.9543 17.1917 28.3127 16.3896 28.3127ZM29.5146 13.8022H29.5C28.6834 13.8022 28.0417 14.4439 28.0417 15.246V16.646C28.0417 17.4481 28.6834 18.0897 29.4855 18.0897H29.5C30.3167 18.1043 30.9584 17.4627 30.9584 16.6606V15.246C30.9584 14.4439 30.3167 13.8022 29.5146 13.8022V13.8022ZM40.8021 18.4835C40.2334 17.9147 39.3146 17.9147 38.7459 18.4689L38.1771 19.0377C37.6084 19.6064 37.6084 20.5252 38.1771 21.0793L38.1917 21.0939C38.7605 21.6627 39.6792 21.6627 40.2334 21.0939L40.8021 20.5252C41.3709 19.9564 41.3709 19.0522 40.8021 18.4835V18.4835ZM38.1625 40.5043L38.7313 41.0731C39.3 41.6418 40.2188 41.6418 40.7875 41.0731C41.3563 40.5043 41.3563 39.5856 40.7875 39.0168L40.2188 38.4481C39.65 37.8793 38.7313 37.8939 38.1771 38.4481C37.5938 39.0314 37.5938 39.9356 38.1625 40.5043ZM41.1667 29.7564V29.771C41.1667 30.5731 41.8084 31.2147 42.6105 31.2147H44.0834C44.8855 31.2147 45.5271 30.5731 45.5271 29.771V29.7564C45.5271 28.9543 44.8855 28.3127 44.0834 28.3127H42.6105C41.8084 28.3127 41.1667 28.9543 41.1667 29.7564ZM29.5 21.021C24.673 21.021 20.75 24.9439 20.75 29.771C20.75 34.5981 24.673 38.521 29.5 38.521C34.3271 38.521 38.25 34.5981 38.25 29.771C38.25 24.9439 34.3271 21.021 29.5 21.021ZM29.4855 45.7397H29.5C30.3021 45.7397 30.9438 45.0981 30.9438 44.296V42.896C30.9438 42.0939 30.3021 41.4522 29.5 41.4522H29.4855C28.6834 41.4522 28.0417 42.0939 28.0417 42.896V44.296C28.0417 45.0981 28.6834 45.7397 29.4855 45.7397ZM18.198 41.0585C18.7667 41.6272 19.6855 41.6272 20.2542 41.0585L20.823 40.4897C21.3917 39.921 21.3771 39.0022 20.823 38.4481L20.8084 38.4335C20.2396 37.8647 19.3209 37.8647 18.7521 38.4335L18.1834 39.0022C17.6292 39.5856 17.6292 40.4897 18.198 41.0585Z" fill="#3CDBD3"/>
</svg>
